<svg xmlns="http://www.w3.org/2000/svg" xmlns:xlink="http://www.w3.org/1999/xlink" width="160" zoomAndPan="magnify" viewBox="0 0 120 30.000001" height="40" preserveAspectRatio="xMidYMid meet" version="1.0"><defs><g/></defs><g fill="#f696c3" fill-opacity="1"><g transform="translate(35.733384, 26.990057)"><g><path d="M 4.839844 -11.5625 C 4.675781 -11.5625 0.234375 -11.796875 0.234375 -7.953125 C 0.234375 -5.546875 1.976562 -4.164062 4.316406 -4.164062 L 5.144531 -4.164062 C 5.601562 -4.164062 5.972656 -3.886719 5.972656 -3.429688 C 5.972656 -2.988281 5.601562 -2.667969 5.214844 -2.667969 C 4.992188 -2.667969 4.617188 -2.738281 4.480469 -3.292969 C 4.4375 -3.402344 4.382812 -3.472656 4.175781 -3.429688 L 0.46875 -2.988281 C 0.261719 -2.945312 0.222656 -2.808594 0.332031 -2.601562 C 0.898438 -1.023438 1.910156 0.496094 5.367188 0.496094 C 7.109375 0.496094 9.308594 -0.457031 9.308594 -3.5 C 9.308594 -7.246094 6 -6.96875 4.839844 -6.96875 C 4.480469 -6.96875 3.789062 -7.050781 3.789062 -7.714844 C 3.789062 -8.253906 4.246094 -8.492188 4.550781 -8.492188 C 4.769531 -8.492188 5.144531 -8.324219 5.28125 -7.953125 C 5.339844 -7.785156 5.460938 -7.714844 5.601562 -7.714844 L 8.988281 -8.1875 C 9.140625 -8.199219 9.25 -8.351562 9.210938 -8.558594 C 9.058594 -9.308594 8.394531 -11.5625 4.839844 -11.5625 Z M 4.839844 -11.5625 "/></g></g></g><g fill="#f696c3" fill-opacity="1"><g transform="translate(45.274529, 26.990057)"><g><path d="M 9.265625 -11.0625 L 1.425781 -11.0625 C 0.898438 -11.0625 0.457031 -10.632812 0.457031 -10.09375 L 0.457031 -8.199219 C 0.457031 -7.675781 0.898438 -7.234375 1.425781 -7.234375 L 3.332031 -7.234375 C 3.386719 -7.234375 3.429688 -7.175781 3.429688 -7.136719 L 3.429688 -0.941406 C 3.429688 -0.414062 3.859375 0.0273438 4.410156 0.0273438 L 6.292969 0.0273438 C 6.816406 0.0273438 7.261719 -0.414062 7.261719 -0.941406 L 7.261719 -7.136719 C 7.261719 -7.175781 7.316406 -7.234375 7.371094 -7.234375 L 9.265625 -7.234375 C 9.789062 -7.234375 10.234375 -7.675781 10.234375 -8.199219 L 10.234375 -10.09375 C 10.234375 -10.632812 9.789062 -11.0625 9.265625 -11.0625 Z M 9.265625 -11.0625 "/></g></g></g><g fill="#f696c3" fill-opacity="1"><g transform="translate(55.963376, 26.990057)"><g><path d="M 4.742188 -11.230469 C 2.476562 -11.230469 0.234375 -9.402344 0.234375 -7.121094 L 0.234375 -3.96875 C 0.234375 -1.605469 2.476562 0.234375 4.742188 0.234375 C 7.066406 0.234375 9.25 -1.605469 9.25 -3.96875 L 9.25 -7.121094 C 9.25 -9.402344 7.066406 -11.230469 4.742188 -11.230469 Z M 5.667969 -4.105469 C 5.667969 -3.636719 5.242188 -3.222656 4.742188 -3.222656 C 4.230469 -3.222656 3.832031 -3.636719 3.832031 -4.105469 L 3.832031 -6.871094 C 3.832031 -7.371094 4.230469 -7.785156 4.742188 -7.785156 C 5.242188 -7.785156 5.667969 -7.371094 5.667969 -6.871094 Z M 5.667969 -4.105469 "/></g></g></g><g fill="#f696c3" fill-opacity="1"><g transform="translate(65.44921, 26.990057)"><g><path d="M 9.058594 -1.175781 L 8.199219 -4.535156 C 8.171875 -4.644531 8.144531 -4.730469 8.105469 -4.796875 C 8.710938 -5.519531 9.097656 -6.402344 9.097656 -7.605469 C 9.097656 -9.722656 7.882812 -11.050781 6.375 -11.050781 L 1.382812 -11.035156 C 0.84375 -11.035156 0.414062 -10.59375 0.414062 -9.804688 L 0.414062 -0.996094 C 0.414062 -0.484375 0.84375 -0.0429688 1.382812 -0.0429688 L 3.152344 -0.0429688 C 3.429688 -0.0429688 3.707031 -0.152344 3.886719 -0.375 C 4.136719 -0.648438 4.121094 -0.800781 4.121094 -1.023438 L 4.121094 -3.332031 C 4.121094 -3.359375 4.136719 -3.414062 4.191406 -3.414062 C 4.246094 -3.414062 4.273438 -3.375 4.273438 -3.347656 L 4.382812 -2.78125 L 4.742188 -1.09375 C 4.882812 -0.46875 5.488281 -0.0429688 5.960938 -0.0429688 L 8.199219 -0.0429688 C 8.738281 -0.0429688 9.195312 -0.527344 9.058594 -1.175781 Z M 5.378906 -7.246094 L 5.378906 -7.050781 C 5.378906 -6.609375 5.007812 -6.238281 4.5625 -6.238281 L 4.300781 -6.238281 C 4.191406 -6.238281 4.121094 -6.320312 4.121094 -6.417969 L 4.121094 -7.894531 C 4.121094 -7.992188 4.191406 -8.074219 4.300781 -8.074219 L 4.5625 -8.074219 C 5.007812 -8.074219 5.378906 -7.703125 5.378906 -7.246094 Z M 5.378906 -7.246094 "/></g></g></g><g fill="#f696c3" fill-opacity="1"><g transform="translate(75.004183, 26.990057)"><g><path d="M 4.316406 -8.0625 L 7.121094 -8.0625 C 7.523438 -8.0625 7.855469 -8.394531 7.855469 -8.78125 L 7.855469 -10.332031 C 7.855469 -10.730469 7.523438 -11.050781 7.121094 -11.050781 L 1.464844 -11.050781 C 0.898438 -11.050781 0.457031 -10.605469 0.457031 -10.289062 L 0.457031 -1.285156 C 0.457031 -0.46875 0.898438 -0.0273438 1.464844 -0.0273438 L 7.121094 -0.0273438 C 7.523438 -0.0273438 7.855469 -0.347656 7.855469 -0.746094 L 7.855469 -2.296875 C 7.855469 -2.695312 7.523438 -3.042969 7.121094 -3.042969 L 4.316406 -3.042969 C 4.257812 -3.042969 4.21875 -3.082031 4.21875 -3.140625 L 4.21875 -4.023438 C 4.21875 -4.078125 4.257812 -4.121094 4.316406 -4.121094 L 6.347656 -4.121094 C 6.707031 -4.121094 7.011719 -4.410156 7.011719 -4.785156 L 7.011719 -6.292969 C 7.011719 -6.652344 6.707031 -6.957031 6.347656 -6.957031 L 4.316406 -6.957031 C 4.257812 -6.957031 4.21875 -6.996094 4.21875 -7.039062 L 4.21875 -7.953125 C 4.21875 -7.992188 4.257812 -8.0625 4.316406 -8.0625 Z M 4.316406 -8.0625 "/></g></g></g><path stroke-linecap="butt" transform="matrix(0.0721604, 0, 0, 0.0721604, 33.70807, 15.604047)" fill="none" stroke-linejoin="miter" d="M 101.755401 -7.179965 C 99.427688 -7.179965 37.932745 -10.48207 37.932745 42.838809 C 37.932745 76.184658 62.076006 95.293561 94.447463 95.293561 L 105.977765 95.293561 C 112.257178 95.293561 117.399801 99.136995 117.399801 105.470541 C 117.399801 111.587556 112.257178 115.972318 106.898024 115.972318 C 103.866583 115.972318 98.669827 115.05206 96.721044 107.365192 C 96.179715 105.849471 95.367722 104.929213 92.552813 105.470541 L 41.180718 111.587556 C 38.311676 112.183017 37.770347 114.131801 39.231934 117.000843 C 47.081201 138.81639 61.101614 159.874077 109.009206 159.874077 C 133.152467 159.874077 163.629273 146.665657 163.629273 104.550282 C 163.629273 52.582726 117.832864 56.42616 101.755401 56.42616 C 96.721044 56.42616 87.139526 55.235236 87.139526 46.032648 C 87.139526 38.616445 93.473072 35.31434 97.749569 35.31434 C 100.781009 35.31434 105.977765 37.642053 107.872416 42.838809 C 108.630276 45.112389 110.362528 46.032648 112.257178 46.032648 L 159.190378 39.536704 C 161.30156 39.374305 162.871413 37.263123 162.275952 34.394081 C 160.16477 24.00057 150.962181 -7.179965 101.755401 -7.179965 Z M 295.280417 -0.30509 L 186.635744 -0.30509 C 179.327806 -0.30509 173.210792 5.595393 173.210792 13.119862 L 173.210792 39.374305 C 173.210792 46.62811 179.327806 52.799257 186.635744 52.799257 L 213.052585 52.799257 C 213.864578 52.799257 214.405907 53.557117 214.405907 54.098446 L 214.405907 139.953181 C 214.405907 147.261118 220.360523 153.378133 228.047391 153.378133 L 254.085302 153.378133 C 261.339107 153.378133 267.456121 147.261118 267.456121 139.953181 L 267.456121 54.098446 C 267.456121 53.557117 268.268114 52.799257 269.025974 52.799257 L 295.280417 52.799257 C 302.534222 52.799257 308.705369 46.62811 308.705369 39.374305 L 308.705369 13.119862 C 308.705369 5.595393 302.534222 -0.30509 295.280417 -0.30509 Z M 380.756221 -2.632803 C 349.305023 -2.632803 318.286888 22.701381 318.286888 54.314978 L 318.286888 98.000205 C 318.286888 130.750592 349.305023 156.301308 380.756221 156.301308 C 412.911147 156.301308 443.225555 130.750592 443.225555 98.000205 L 443.225555 54.314978 C 443.225555 22.701381 412.911147 -2.632803 380.756221 -2.632803 Z M 393.585712 96.051422 C 393.585712 102.601499 387.631096 108.339583 380.756221 108.339583 C 373.610682 108.339583 368.089129 102.601499 368.089129 96.051422 L 368.089129 57.725349 C 368.089129 50.850474 373.610682 45.112389 380.756221 45.112389 C 387.631096 45.112389 393.585712 50.850474 393.585712 57.725349 Z M 572.007657 136.705208 L 560.098425 90.150939 C 559.719495 88.635218 559.340565 87.444295 558.745103 86.524036 C 567.189831 76.563588 572.548986 64.275426 572.548986 47.602502 C 572.548986 18.316618 555.713662 -0.142691 534.818374 -0.142691 L 465.636564 0.0738403 C 458.166228 0.0738403 452.211612 6.190855 452.211612 17.125695 L 452.211612 139.19532 C 452.211612 146.286727 458.166228 152.457874 465.636564 152.457874 L 490.158755 152.457874 C 494.002189 152.457874 497.845623 150.888021 500.335735 147.802447 C 503.746106 143.959013 503.583707 141.847831 503.583707 138.81639 L 503.583707 106.823863 C 503.583707 106.444933 503.746106 105.63294 504.503966 105.63294 C 505.261826 105.63294 505.694889 106.282534 505.694889 106.607332 L 507.210609 114.510731 L 512.190834 137.841999 C 514.139617 146.503258 522.530212 152.457874 529.026157 152.457874 L 560.098425 152.457874 C 567.568761 152.457874 573.902307 145.691265 572.007657 136.705208 Z M 521.014492 52.582726 L 521.014492 55.235236 C 521.014492 61.406384 515.817736 66.603139 509.700722 66.603139 L 506.073819 66.603139 C 504.503966 66.603139 503.583707 65.412216 503.583707 64.058895 L 503.583707 43.542536 C 503.583707 42.243347 504.503966 41.106557 506.073819 41.106557 L 509.700722 41.106557 C 515.817736 41.106557 521.014492 46.303313 521.014492 52.582726 Z M 638.645222 41.268956 L 677.566756 41.268956 C 683.088309 41.268956 687.743736 36.667661 687.743736 31.308507 L 687.743736 9.817757 C 687.743736 4.296204 683.088309 -0.142691 677.566756 -0.142691 L 599.182358 -0.142691 C 591.333092 -0.142691 585.161945 5.974323 585.161945 10.413219 L 585.161945 135.189488 C 585.161945 146.503258 591.333092 152.620272 599.182358 152.620272 L 677.566756 152.620272 C 683.088309 152.620272 687.743736 148.23551 687.743736 142.659824 L 687.743736 121.169074 C 687.743736 115.593388 683.088309 110.829696 677.566756 110.829696 L 638.645222 110.829696 C 637.941494 110.829696 637.2919 110.288367 637.2919 109.476374 L 637.2919 97.242345 C 637.2919 96.484485 637.941494 95.889023 638.645222 95.889023 L 666.848448 95.889023 C 671.828672 95.889023 676.051036 91.829058 676.051036 86.686435 L 676.051036 65.791146 C 676.051036 60.810922 671.828672 56.642691 666.848448 56.642691 L 638.645222 56.642691 C 637.941494 56.642691 637.2919 55.993097 637.2919 55.451768 L 637.2919 42.838809 C 637.2919 42.243347 637.941494 41.268956 638.645222 41.268956 Z M 638.645222 41.268956 " stroke="#ff66c4" stroke-width="3.114264" stroke-opacity="1" stroke-miterlimit="4"/><g fill="#5ce1e6" fill-opacity="1"><g transform="translate(35.965361, 12.763309)"><g><path d="M 9.261719 -11.058594 L 1.421875 -11.058594 C 0.898438 -11.058594 0.457031 -10.628906 0.457031 -10.089844 L 0.457031 -8.195312 C 0.457031 -7.671875 0.898438 -7.230469 1.421875 -7.230469 L 3.332031 -7.230469 C 3.386719 -7.230469 3.429688 -7.175781 3.429688 -7.132812 L 3.429688 -0.941406 C 3.429688 -0.414062 3.855469 0.0273438 4.410156 0.0273438 L 6.289062 0.0273438 C 6.816406 0.0273438 7.257812 -0.414062 7.257812 -0.941406 L 7.257812 -7.132812 C 7.257812 -7.175781 7.3125 -7.230469 7.367188 -7.230469 L 9.261719 -7.230469 C 9.785156 -7.230469 10.230469 -7.671875 10.230469 -8.195312 L 10.230469 -10.089844 C 10.230469 -10.628906 9.785156 -11.058594 9.261719 -11.058594 Z M 9.261719 -11.058594 "/></g></g></g><g fill="#5ce1e6" fill-opacity="1"><g transform="translate(46.64118, 12.763309)"><g><path d="M 8.417969 -11.03125 L 6.234375 -11.03125 C 5.792969 -11.03125 5.433594 -10.644531 5.433594 -10.199219 L 5.433594 -3.925781 C 5.433594 -3.59375 5.15625 -3.332031 4.824219 -3.332031 C 4.507812 -3.332031 4.230469 -3.59375 4.230469 -3.925781 L 4.230469 -10.519531 C 4.230469 -10.796875 4.007812 -11.015625 3.746094 -11.015625 L 0.71875 -11.015625 C 0.457031 -11.015625 0.234375 -10.796875 0.234375 -10.519531 L 0.234375 -3.953125 C 0.234375 -1.632812 2.40625 0.261719 4.726562 0.261719 C 7.007812 0.261719 9.136719 -1.519531 9.234375 -3.773438 L 9.234375 -10.199219 C 9.234375 -10.644531 8.859375 -11.03125 8.417969 -11.03125 Z M 8.417969 -11.03125 "/></g></g></g><g fill="#5ce1e6" fill-opacity="1"><g transform="translate(56.101635, 12.763309)"><g><path d="M 9.261719 -11.058594 L 1.421875 -11.058594 C 0.898438 -11.058594 0.457031 -10.628906 0.457031 -10.089844 L 0.457031 -8.195312 C 0.457031 -7.671875 0.898438 -7.230469 1.421875 -7.230469 L 3.332031 -7.230469 C 3.386719 -7.230469 3.429688 -7.175781 3.429688 -7.132812 L 3.429688 -0.941406 C 3.429688 -0.414062 3.855469 0.0273438 4.410156 0.0273438 L 6.289062 0.0273438 C 6.816406 0.0273438 7.257812 -0.414062 7.257812 -0.941406 L 7.257812 -7.132812 C 7.257812 -7.175781 7.3125 -7.230469 7.367188 -7.230469 L 9.261719 -7.230469 C 9.785156 -7.230469 10.230469 -7.671875 10.230469 -8.195312 L 10.230469 -10.089844 C 10.230469 -10.628906 9.785156 -11.058594 9.261719 -11.058594 Z M 9.261719 -11.058594 "/></g></g></g><g fill="#5ce1e6" fill-opacity="1"><g transform="translate(66.777454, 12.763309)"><g><path d="M 1.4375 0.015625 L 3.152344 0.015625 C 3.730469 0.015625 4.148438 -0.457031 4.148438 -0.980469 L 4.148438 -10.0625 C 4.148438 -10.644531 3.730469 -11.058594 3.152344 -11.058594 L 1.4375 -11.058594 C 0.898438 -11.058594 0.457031 -10.644531 0.457031 -10.0625 L 0.457031 -0.980469 C 0.457031 -0.457031 0.898438 0.015625 1.4375 0.015625 Z M 1.4375 0.015625 "/></g></g></g><g fill="#5ce1e6" fill-opacity="1"><g transform="translate(71.376476, 12.763309)"><g><path d="M 4.839844 -11.554688 C 4.671875 -11.554688 0.234375 -11.789062 0.234375 -7.949219 C 0.234375 -5.542969 1.976562 -4.160156 4.3125 -4.160156 L 5.140625 -4.160156 C 5.597656 -4.160156 5.972656 -3.882812 5.972656 -3.429688 C 5.972656 -2.984375 5.597656 -2.667969 5.210938 -2.667969 C 4.988281 -2.667969 4.617188 -2.738281 4.480469 -3.289062 C 4.4375 -3.398438 4.382812 -3.46875 4.175781 -3.429688 L 0.46875 -2.984375 C 0.261719 -2.945312 0.222656 -2.804688 0.332031 -2.597656 C 0.898438 -1.023438 1.90625 0.496094 5.363281 0.496094 C 7.105469 0.496094 9.300781 -0.457031 9.300781 -3.496094 C 9.300781 -7.242188 6 -6.964844 4.839844 -6.964844 C 4.480469 -6.964844 3.789062 -7.050781 3.789062 -7.714844 C 3.789062 -8.253906 4.242188 -8.488281 4.546875 -8.488281 C 4.769531 -8.488281 5.140625 -8.320312 5.28125 -7.949219 C 5.335938 -7.78125 5.460938 -7.714844 5.597656 -7.714844 L 8.984375 -8.183594 C 9.136719 -8.195312 9.246094 -8.347656 9.207031 -8.554688 C 9.054688 -9.300781 8.390625 -11.554688 4.839844 -11.554688 Z M 4.839844 -11.554688 "/></g></g></g><g fill="#5ce1e6" fill-opacity="1"><g transform="translate(80.905987, 12.763309)"><g><path d="M 1.453125 -8.390625 L 0.71875 -8.390625 C 0.441406 -8.390625 0.234375 -8.597656 0.234375 -8.847656 L 0.234375 -10.589844 C 0.234375 -10.835938 0.441406 -11.058594 0.71875 -11.058594 L 1.453125 -11.058594 C 1.714844 -11.058594 1.933594 -10.835938 1.933594 -10.589844 L 1.933594 -8.847656 C 1.933594 -8.597656 1.714844 -8.390625 1.453125 -8.390625 Z M 1.453125 -8.390625 "/></g></g></g><path stroke-linecap="butt" transform="matrix(0.940313, 0, 0, 0.940313, 33.70807, 2.074394)" fill="none" stroke-linejoin="miter" d="M 12.752289 -0.760405 L 4.418964 -0.760405 C 3.862301 -0.760405 3.388722 -0.303443 3.388722 0.269837 L 3.388722 2.284624 C 3.388722 2.841286 3.862301 3.310711 4.418964 3.310711 L 6.450368 3.310711 C 6.508527 3.310711 6.554223 3.36887 6.554223 3.414566 L 6.554223 9.998973 C 6.554223 10.55979 7.007031 11.029215 7.596927 11.029215 L 9.595097 11.029215 C 10.15176 11.029215 10.621185 10.55979 10.621185 9.998973 L 10.621185 3.414566 C 10.621185 3.36887 10.683498 3.310711 10.741657 3.310711 L 12.752289 3.310711 C 13.313106 3.310711 13.782531 2.841286 13.782531 2.284624 L 13.782531 0.269837 C 13.782531 -0.303443 13.313106 -0.760405 12.752289 -0.760405 Z M 23.208411 -0.731326 L 20.890367 -0.731326 C 20.416789 -0.731326 20.038756 -0.32006 20.038756 0.149365 L 20.038756 6.825164 C 20.038756 7.178271 19.743808 7.456603 19.390701 7.456603 C 19.050057 7.456603 18.755109 7.178271 18.755109 6.825164 L 18.755109 -0.187125 C 18.755109 -0.482074 18.522473 -0.718863 18.244142 -0.718863 L 15.024637 -0.718863 C 14.742151 -0.718863 14.509516 -0.482074 14.509516 -0.187125 L 14.509516 6.796085 C 14.509516 9.267834 16.819251 11.278467 19.286846 11.278467 C 21.712899 11.278467 23.972784 9.379997 24.080793 6.987178 L 24.080793 0.149365 C 24.080793 -0.32006 23.686144 -0.731326 23.208411 -0.731326 Z M 34.167191 -0.760405 L 25.833866 -0.760405 C 25.277203 -0.760405 24.803624 -0.303443 24.803624 0.269837 L 24.803624 2.284624 C 24.803624 2.841286 25.277203 3.310711 25.833866 3.310711 L 27.861115 3.310711 C 27.923428 3.310711 27.96497 3.36887 27.96497 3.414566 L 27.96497 9.998973 C 27.96497 10.55979 28.421932 11.029215 29.011829 11.029215 L 31.009999 11.029215 C 31.566662 11.029215 32.036086 10.55979 32.036086 9.998973 L 32.036086 3.414566 C 32.036086 3.36887 32.098399 3.310711 32.156558 3.310711 L 34.167191 3.310711 C 34.728008 3.310711 35.197433 2.841286 35.197433 2.284624 L 35.197433 0.269837 C 35.197433 -0.303443 34.728008 -0.760405 34.167191 -0.760405 Z M 37.203911 11.012598 L 39.027605 11.012598 C 39.642427 11.012598 40.086926 10.514094 40.086926 9.957431 L 40.086926 0.298916 C 40.086926 -0.32006 39.642427 -0.760405 39.027605 -0.760405 L 37.203911 -0.760405 C 36.630632 -0.760405 36.157053 -0.32006 36.157053 0.298916 L 36.157053 9.957431 C 36.157053 10.514094 36.630632 11.012598 37.203911 11.012598 Z M 45.711713 -1.287989 C 45.533082 -1.287989 40.818065 -1.541395 40.818065 2.546338 C 40.818065 5.105325 42.666684 6.575912 45.150896 6.575912 L 46.035741 6.575912 C 46.517628 6.575912 46.912277 6.87086 46.912277 7.352748 C 46.912277 7.822172 46.517628 8.162817 46.106362 8.162817 C 45.873727 8.162817 45.474924 8.088041 45.329527 7.502299 C 45.28383 7.381827 45.221517 7.311206 45.005499 7.352748 L 41.063163 7.822172 C 40.84299 7.872023 40.801448 8.01742 40.917766 8.237592 C 41.520125 9.911735 42.591909 11.527719 46.268376 11.527719 C 48.121149 11.527719 50.459964 10.514094 50.459964 7.282126 C 50.459964 3.298248 46.94551 3.593197 45.711713 3.593197 C 45.329527 3.593197 44.590079 3.501804 44.590079 2.79559 C 44.590079 2.226465 45.07612 1.973059 45.404302 1.973059 C 45.636937 1.973059 46.035741 2.151689 46.181138 2.546338 C 46.239296 2.724969 46.372231 2.79559 46.517628 2.79559 L 50.119319 2.297086 C 50.281333 2.284624 50.397651 2.12261 50.356109 1.902437 C 50.194095 1.104831 49.487881 -1.287989 45.711713 -1.287989 Z M 52.242116 2.076914 L 51.46528 2.076914 C 51.170332 2.076914 50.950159 1.856741 50.950159 1.595026 L 50.950159 -0.261901 C 50.950159 -0.523616 51.170332 -0.760405 51.46528 -0.760405 L 52.242116 -0.760405 C 52.524601 -0.760405 52.757236 -0.523616 52.757236 -0.261901 L 52.757236 1.595026 C 52.757236 1.856741 52.524601 2.076914 52.242116 2.076914 Z M 52.242116 2.076914 " stroke="#3d8082" stroke-width="0.23899" stroke-opacity="1" stroke-miterlimit="4"/></svg>